<mxfile host="65bd71144e">
    <diagram id="4LijOCiEhbFoO6wsC_zy" name="Page-1">
        <mxGraphModel dx="1973" dy="1408" grid="1" gridSize="13" guides="1" tooltips="1" connect="1" arrows="1" fold="1" page="1" pageScale="1" pageWidth="1600" pageHeight="900" background="#ffffff" math="0" shadow="0">
            <root>
                <mxCell id="0"/>
                <mxCell id="1" parent="0"/>
                <mxCell id="3" value="&lt;div style=&quot;line-height: 19px; white-space: pre;&quot;&gt;&lt;span&gt;UnivariateAnalysisStrategy &amp;lt;&amp;lt;abstract&amp;gt;&amp;gt;&lt;/span&gt;&lt;/div&gt;" style="swimlane;fontStyle=1;align=center;verticalAlign=top;childLayout=stackLayout;horizontal=1;startSize=26;horizontalStack=0;resizeParent=1;resizeParentMax=0;resizeLast=0;collapsible=1;marginBottom=0;whiteSpace=wrap;html=1;strokeColor=default;labelBackgroundColor=none;fontColor=default;fontFamily=Helvetica;fontSize=18;shadow=0;strokeWidth=2;" vertex="1" parent="1">
                    <mxGeometry x="879" y="204" width="395" height="104" as="geometry"/>
                </mxCell>
                <mxCell id="4" value="+ field: type" style="text;strokeColor=none;fillColor=none;align=left;verticalAlign=top;spacingLeft=4;spacingRight=4;overflow=hidden;rotatable=0;points=[[0,0.5],[1,0.5]];portConstraint=eastwest;whiteSpace=wrap;html=1;fontSize=18;shadow=0;strokeWidth=2;fontStyle=1" vertex="1" parent="3">
                    <mxGeometry y="26" width="395" height="26" as="geometry"/>
                </mxCell>
                <mxCell id="5" value="" style="line;strokeWidth=2;fillColor=none;align=left;verticalAlign=middle;spacingTop=-1;spacingLeft=3;spacingRight=3;rotatable=0;labelPosition=right;points=[];portConstraint=eastwest;strokeColor=inherit;fontSize=18;shadow=0;fontStyle=1" vertex="1" parent="3">
                    <mxGeometry y="52" width="395" height="8" as="geometry"/>
                </mxCell>
                <mxCell id="24" value="+ analyze(df: DataFrame, feature: str): None&amp;nbsp;" style="text;strokeColor=none;fillColor=none;align=left;verticalAlign=top;spacingLeft=4;spacingRight=4;overflow=hidden;rotatable=0;points=[[0,0.5],[1,0.5]];portConstraint=eastwest;whiteSpace=wrap;html=1;fontSize=18;shadow=0;strokeWidth=2;fontStyle=1" vertex="1" parent="3">
                    <mxGeometry y="60" width="395" height="44" as="geometry"/>
                </mxCell>
                <mxCell id="8" value="&lt;div style=&quot;line-height: 19px; white-space: pre;&quot;&gt;&lt;span&gt;NumericalUnivariateAnalysis&lt;/span&gt;&lt;/div&gt;" style="swimlane;fontStyle=1;align=center;verticalAlign=top;childLayout=stackLayout;horizontal=1;startSize=26;horizontalStack=0;resizeParent=1;resizeParentMax=0;resizeLast=0;collapsible=1;marginBottom=0;whiteSpace=wrap;html=1;strokeColor=default;labelBackgroundColor=none;fontColor=default;fontFamily=Helvetica;fontSize=18;shadow=0;strokeWidth=2;" vertex="1" collapsed="1" parent="1">
                    <mxGeometry x="689" y="374" width="286" height="39" as="geometry">
                        <mxRectangle x="689" y="374" width="320" height="86" as="alternateBounds"/>
                    </mxGeometry>
                </mxCell>
                <mxCell id="9" value="+ field: type" style="text;strokeColor=none;fillColor=none;align=left;verticalAlign=top;spacingLeft=4;spacingRight=4;overflow=hidden;rotatable=0;points=[[0,0.5],[1,0.5]];portConstraint=eastwest;whiteSpace=wrap;html=1;fontSize=15;shadow=0;strokeWidth=2;" vertex="1" parent="8">
                    <mxGeometry y="26" width="320" height="26" as="geometry"/>
                </mxCell>
                <mxCell id="10" value="" style="line;strokeWidth=2;fillColor=none;align=left;verticalAlign=middle;spacingTop=-1;spacingLeft=3;spacingRight=3;rotatable=0;labelPosition=right;points=[];portConstraint=eastwest;strokeColor=inherit;fontSize=15;shadow=0;" vertex="1" parent="8">
                    <mxGeometry y="52" width="320" height="8" as="geometry"/>
                </mxCell>
                <mxCell id="11" value="+ analyze(): Void" style="text;strokeColor=none;fillColor=none;align=left;verticalAlign=top;spacingLeft=4;spacingRight=4;overflow=hidden;rotatable=0;points=[[0,0.5],[1,0.5]];portConstraint=eastwest;whiteSpace=wrap;html=1;fontSize=15;shadow=0;strokeWidth=2;" vertex="1" parent="8">
                    <mxGeometry y="60" width="320" height="26" as="geometry"/>
                </mxCell>
                <mxCell id="12" value="&lt;div style=&quot;line-height: 19px; white-space: pre;&quot;&gt;&lt;span&gt;CategoricalUnivariateAnalysis&lt;/span&gt;&lt;/div&gt;" style="swimlane;fontStyle=1;align=center;verticalAlign=top;childLayout=stackLayout;horizontal=1;startSize=26;horizontalStack=0;resizeParent=1;resizeParentMax=0;resizeLast=0;collapsible=1;marginBottom=0;whiteSpace=wrap;html=1;strokeColor=default;labelBackgroundColor=none;fontColor=default;fontFamily=Helvetica;fontSize=18;shadow=0;strokeWidth=2;" vertex="1" collapsed="1" parent="1">
                    <mxGeometry x="1119" y="374" width="311" height="39" as="geometry">
                        <mxRectangle x="1119" y="374" width="320" height="86" as="alternateBounds"/>
                    </mxGeometry>
                </mxCell>
                <mxCell id="13" value="+ field: type" style="text;strokeColor=none;fillColor=none;align=left;verticalAlign=top;spacingLeft=4;spacingRight=4;overflow=hidden;rotatable=0;points=[[0,0.5],[1,0.5]];portConstraint=eastwest;whiteSpace=wrap;html=1;fontSize=15;shadow=0;strokeWidth=2;" vertex="1" parent="12">
                    <mxGeometry y="26" width="320" height="26" as="geometry"/>
                </mxCell>
                <mxCell id="14" value="" style="line;strokeWidth=2;fillColor=none;align=left;verticalAlign=middle;spacingTop=-1;spacingLeft=3;spacingRight=3;rotatable=0;labelPosition=right;points=[];portConstraint=eastwest;strokeColor=inherit;fontSize=15;shadow=0;" vertex="1" parent="12">
                    <mxGeometry y="52" width="320" height="8" as="geometry"/>
                </mxCell>
                <mxCell id="15" value="+ analyze(): None&amp;nbsp;" style="text;strokeColor=none;fillColor=none;align=left;verticalAlign=top;spacingLeft=4;spacingRight=4;overflow=hidden;rotatable=0;points=[[0,0.5],[1,0.5]];portConstraint=eastwest;whiteSpace=wrap;html=1;fontSize=15;shadow=0;strokeWidth=2;" vertex="1" parent="12">
                    <mxGeometry y="60" width="320" height="26" as="geometry"/>
                </mxCell>
                <mxCell id="18" style="edgeStyle=none;html=1;entryX=0.65;entryY=1.176;entryDx=0;entryDy=0;entryPerimeter=0;fontSize=18;shadow=0;strokeWidth=2;fontStyle=1" edge="1" parent="1" source="12">
                    <mxGeometry relative="1" as="geometry">
                        <mxPoint x="1101.9499999999998" y="320.5759999999999" as="targetPoint"/>
                    </mxGeometry>
                </mxCell>
                <mxCell id="19" style="edgeStyle=none;html=1;entryX=0.429;entryY=1.132;entryDx=0;entryDy=0;entryPerimeter=0;fontSize=18;shadow=0;strokeWidth=2;fontStyle=1" edge="1" parent="1" source="8">
                    <mxGeometry relative="1" as="geometry">
                        <mxPoint x="1026.1470000000002" y="319.4319999999999" as="targetPoint"/>
                    </mxGeometry>
                </mxCell>
                <mxCell id="20" value="UnivariateAnalyzer" style="swimlane;fontStyle=1;align=center;verticalAlign=top;childLayout=stackLayout;horizontal=1;startSize=26;horizontalStack=0;resizeParent=1;resizeParentMax=0;resizeLast=0;collapsible=1;marginBottom=0;whiteSpace=wrap;html=1;fontSize=18;shadow=0;strokeWidth=2;fontFamily=Helvetica;labelBackgroundColor=default;" vertex="1" parent="1">
                    <mxGeometry x="26" y="195" width="531" height="143" as="geometry"/>
                </mxCell>
                <mxCell id="21" value="# strategy: UnivariateAnalysisStrategy" style="text;strokeColor=none;fillColor=none;align=left;verticalAlign=top;spacingLeft=4;spacingRight=4;overflow=hidden;rotatable=0;points=[[0,0.5],[1,0.5]];portConstraint=eastwest;whiteSpace=wrap;html=1;fontSize=18;shadow=0;strokeWidth=2;fontStyle=1;fontFamily=Helvetica;labelBackgroundColor=default;" vertex="1" parent="20">
                    <mxGeometry y="26" width="531" height="26" as="geometry"/>
                </mxCell>
                <mxCell id="22" value="" style="line;strokeWidth=2;fillColor=none;align=left;verticalAlign=middle;spacingTop=-1;spacingLeft=3;spacingRight=3;rotatable=0;labelPosition=right;points=[];portConstraint=eastwest;strokeColor=inherit;fontSize=18;shadow=0;fontStyle=1;fontFamily=Helvetica;labelBackgroundColor=default;" vertex="1" parent="20">
                    <mxGeometry y="52" width="531" height="8" as="geometry"/>
                </mxCell>
                <mxCell id="23" value="+ analyze(&lt;span style=&quot;color: rgb(0, 0, 0);&quot;&gt;df: DataFrame, feature: str&lt;/span&gt;): Void&lt;div&gt;+ setStrategy(UnivariateAnalysisStrategy) : Void&lt;/div&gt;" style="text;strokeColor=none;fillColor=none;align=left;verticalAlign=top;spacingLeft=4;spacingRight=4;overflow=hidden;rotatable=0;points=[[0,0.5],[1,0.5]];portConstraint=eastwest;whiteSpace=wrap;html=1;fontSize=18;shadow=0;strokeWidth=2;fontStyle=1;fontFamily=Helvetica;labelBackgroundColor=default;" vertex="1" parent="20">
                    <mxGeometry y="60" width="531" height="83" as="geometry"/>
                </mxCell>
                <mxCell id="25" value="" style="rhombus;aspect=fixed;fontSize=18;fontStyle=1;fontFamily=Helvetica;labelBackgroundColor=default;" vertex="1" parent="1">
                    <mxGeometry x="557" y="280" width="20" height="20" as="geometry"/>
                </mxCell>
                <mxCell id="26" value="" style="endArrow=none;html=1;rounded=0;align=center;verticalAlign=bottom;labelBackgroundColor=default;exitX=1;exitY=0.5;exitDx=0;exitDy=0;fontSize=18;fontStyle=1;fontFamily=Helvetica;" edge="1" target="25" parent="1" source="23">
                    <mxGeometry relative="1" as="geometry">
                        <mxPoint x="650" y="309" as="sourcePoint"/>
                    </mxGeometry>
                </mxCell>
                <mxCell id="27" value="" style="endArrow=none;html=1;rounded=0;align=center;verticalAlign=bottom;labelBackgroundColor=none;entryX=0;entryY=0.5;entryDx=0;entryDy=0;" edge="1" source="25" parent="1" target="3">
                    <mxGeometry relative="1" as="geometry">
                        <mxPoint x="790" y="322" as="targetPoint"/>
                    </mxGeometry>
                </mxCell>
            </root>
        </mxGraphModel>
    </diagram>
</mxfile>